<svg width="352" height="132" viewBox="0 0 352 132" fill="none" xmlns="http://www.w3.org/2000/svg">
<g filter="url(#filter0_i_678_32)">
<rect x="73" width="60" height="60" rx="11" fill="#202020"/>
</g>
<rect x="73.15" y="0.15" width="59.7" height="59.7" rx="10.85" stroke="url(#paint0_linear_678_32)" stroke-width="0.3"/>
<rect x="73.15" y="0.15" width="59.7" height="59.7" rx="10.85" stroke="url(#paint1_linear_678_32)" stroke-opacity="0.2" stroke-width="0.3"/>
<g filter="url(#filter1_i_678_32)">
<rect x="146" width="60" height="60" rx="11" fill="#202020"/>
</g>
<rect x="146.15" y="0.15" width="59.7" height="59.7" rx="10.85" stroke="url(#paint2_linear_678_32)" stroke-width="0.3"/>
<rect x="146.15" y="0.15" width="59.7" height="59.7" rx="10.85" stroke="url(#paint3_linear_678_32)" stroke-opacity="0.2" stroke-width="0.3"/>
<g filter="url(#filter2_i_678_32)">
<rect x="219" width="60" height="60" rx="11" fill="#202020"/>
</g>
<rect x="219.15" y="0.15" width="59.7" height="59.7" rx="10.85" stroke="url(#paint4_linear_678_32)" stroke-width="0.3"/>
<rect x="219.15" y="0.15" width="59.7" height="59.7" rx="10.85" stroke="url(#paint5_linear_678_32)" stroke-opacity="0.2" stroke-width="0.3"/>
<g filter="url(#filter3_i_678_32)">
<rect x="292" width="60" height="60" rx="11" fill="#202020"/>
</g>
<rect x="292.15" y="0.15" width="59.7" height="59.7" rx="10.85" stroke="url(#paint6_linear_678_32)" stroke-width="0.3"/>
<rect x="292.15" y="0.15" width="59.7" height="59.7" rx="10.85" stroke="url(#paint7_linear_678_32)" stroke-opacity="0.2" stroke-width="0.3"/>
<g filter="url(#filter4_i_678_32)">
<rect x="292" y="72" width="60" height="60" rx="11" fill="#202020"/>
</g>
<rect x="292.15" y="72.15" width="59.7" height="59.7" rx="10.85" stroke="url(#paint8_linear_678_32)" stroke-width="0.3"/>
<rect x="292.15" y="72.15" width="59.7" height="59.7" rx="10.85" stroke="url(#paint9_linear_678_32)" stroke-opacity="0.2" stroke-width="0.3"/>
<g filter="url(#filter5_i_678_32)">
<rect x="292" y="72" width="60" height="60" rx="11" fill="#202020"/>
</g>
<rect x="292.15" y="72.15" width="59.7" height="59.7" rx="10.85" stroke="url(#paint10_linear_678_32)" stroke-width="0.3"/>
<rect x="292.15" y="72.15" width="59.7" height="59.7" rx="10.85" stroke="url(#paint11_linear_678_32)" stroke-opacity="0.2" stroke-width="0.3"/>
<g filter="url(#filter6_i_678_32)">
<rect x="219" y="72" width="60" height="60" rx="11" fill="#202020"/>
</g>
<rect x="219.15" y="72.15" width="59.7" height="59.7" rx="10.85" stroke="url(#paint12_linear_678_32)" stroke-width="0.3"/>
<rect x="219.15" y="72.15" width="59.7" height="59.7" rx="10.85" stroke="url(#paint13_linear_678_32)" stroke-opacity="0.2" stroke-width="0.3"/>
<g filter="url(#filter7_i_678_32)">
<rect x="146" y="72" width="60" height="60" rx="11" fill="#202020"/>
</g>
<rect x="146.15" y="72.15" width="59.7" height="59.7" rx="10.85" stroke="url(#paint14_linear_678_32)" stroke-width="0.3"/>
<rect x="146.15" y="72.15" width="59.7" height="59.7" rx="10.85" stroke="url(#paint15_linear_678_32)" stroke-opacity="0.2" stroke-width="0.3"/>
<g filter="url(#filter8_i_678_32)">
<rect x="73" y="72" width="60" height="60" rx="11" fill="#202020"/>
</g>
<rect x="73.15" y="72.15" width="59.7" height="59.7" rx="10.85" stroke="url(#paint16_linear_678_32)" stroke-width="0.3"/>
<rect x="73.15" y="72.15" width="59.7" height="59.7" rx="10.85" stroke="url(#paint17_linear_678_32)" stroke-opacity="0.2" stroke-width="0.3"/>
<g filter="url(#filter9_i_678_32)">
<rect y="72" width="60" height="60" rx="11" fill="#202020"/>
</g>
<rect x="0.15" y="72.15" width="59.7" height="59.7" rx="10.85" stroke="url(#paint18_linear_678_32)" stroke-width="0.3"/>
<rect x="0.15" y="72.15" width="59.7" height="59.7" rx="10.85" stroke="url(#paint19_linear_678_32)" stroke-opacity="0.2" stroke-width="0.3"/>
<g filter="url(#filter10_i_678_32)">
<rect width="60" height="60" rx="11" fill="#202020"/>
</g>
<rect x="0.15" y="0.15" width="59.7" height="59.7" rx="10.85" stroke="url(#paint20_linear_678_32)" stroke-width="0.3"/>
<rect x="0.15" y="0.15" width="59.7" height="59.7" rx="10.85" stroke="url(#paint21_linear_678_32)" stroke-opacity="0.2" stroke-width="0.3"/>
<g clip-path="url(#clip0_678_32)">
<path d="M94.8684 26.3406L95.1212 27.478C95.1212 27.8571 95.2476 28.1099 95.5003 28.489V28.7417L95.3739 29.1208L94.4893 29.6263L94.2366 29.7527L93.8574 29.6263L93.3519 28.9945L92.9728 28.2362C91.9618 29.3736 90.6981 30.0055 89.308 30.0055C88.1706 30.0055 87.286 29.6263 86.7805 28.9945C86.1487 28.489 85.7695 27.6044 85.7695 26.5934C85.7695 25.5824 86.1487 24.6978 86.9069 24.0659C87.6651 23.3077 88.6761 23.0549 90.0662 23.0549C91.0062 23.0498 91.9422 23.1774 92.8465 23.434V22.5494C92.8465 21.5384 92.5937 20.9066 92.2146 20.5274C91.8355 20.0219 91.2036 19.8956 90.1926 19.8956L88.8025 20.0219C88.1944 20.1772 87.6021 20.3887 87.0333 20.6538H86.7805C86.6541 20.6538 86.5278 20.5274 86.5278 20.2747V19.6428L86.6541 19.2637C86.6541 19.1373 86.7805 19.011 87.0333 19.011L88.5498 18.3791L90.5717 18.1263C92.0882 18.1263 93.0992 18.5055 93.8574 19.1373C94.4893 19.8956 94.8684 20.9066 94.8684 22.2967V26.3406ZM89.8135 28.3626L91.0772 28.1099C91.5827 27.9835 91.9618 27.6044 92.341 27.2252L92.7201 26.467L92.8465 25.3296V24.8241C92.0583 24.6488 91.2527 24.5641 90.4454 24.5714C89.6871 24.5714 89.0552 24.6978 88.5498 25.0769C88.1706 25.3296 88.0443 25.8351 88.0443 26.467C88.0443 27.0989 88.1706 27.478 88.4234 27.8571C88.8025 28.1099 89.1816 28.3626 89.8135 28.3626ZM99.9234 29.6263L99.4179 29.5L99.1651 29.1208L96.2585 19.2637L96.1322 18.7582L96.3849 18.5055H97.6487L98.1541 18.6318L98.4069 19.1373L100.555 27.478L102.451 19.1373L102.704 18.6318L103.209 18.5055H104.22L104.726 18.6318L104.978 19.1373L107 27.6044L109.149 19.1373L109.401 18.6318L109.907 18.5055H111.044C111.297 18.5055 111.423 18.6318 111.423 18.7582V19.011L111.297 19.2637L108.264 29.1208L108.011 29.6263L107.506 29.7527H106.368L105.863 29.6263L105.737 29.1208L103.715 20.9066L101.819 28.9945L101.566 29.5L101.061 29.6263H99.9234ZM116.226 30.0055C115.047 29.9965 113.885 29.7381 112.813 29.2472L112.434 28.8681L112.308 28.6153V27.9835C112.308 27.7307 112.434 27.6044 112.561 27.6044H112.813L113.193 27.7307C114.103 28.1525 115.096 28.3683 116.099 28.3626C116.857 28.3626 117.489 28.1099 117.868 27.8571C118.374 27.6044 118.5 27.2252 118.5 26.7197L118.248 25.8351L116.984 25.2033L115.088 24.5714C114.204 24.3186 113.445 23.8131 113.066 23.3077C112.821 22.9859 112.642 22.6183 112.541 22.2265C112.439 21.8347 112.418 21.4265 112.476 21.0261C112.535 20.6257 112.674 20.2411 112.884 19.895C113.093 19.5489 113.37 19.2483 113.698 19.011L114.962 18.3791C115.774 18.101 116.639 18.0144 117.489 18.1263C118.002 18.2242 118.508 18.3507 119.006 18.5055L119.511 18.7582L119.89 19.011L120.017 19.5164V20.0219C120.017 20.4011 119.89 20.5274 119.764 20.5274L119.259 20.2747C118.5 20.0219 117.742 19.8956 116.857 19.8956C116.099 19.8956 115.467 19.8956 115.088 20.1483C114.709 20.4011 114.583 20.7802 114.583 21.2857C114.583 21.6648 114.709 21.9175 114.962 22.1703C115.215 22.423 115.594 22.6758 116.352 22.9285L118.121 23.434C119.006 23.8131 119.638 24.1923 120.017 24.6978C120.396 25.2033 120.649 25.8351 120.649 26.467L120.27 27.9835L119.385 28.9945C119.006 29.3736 118.5 29.6263 117.995 29.7527L116.226 30.0055Z" fill="#DEDEDE"/>
<path fill-rule="evenodd" clip-rule="evenodd" d="M118.626 36.1978C113.471 39.6409 107.313 41.2622 101.131 40.8043C94.9487 40.3463 89.0969 37.8354 84.5054 33.6703C83.9999 33.2912 84.379 32.9121 84.7581 33.1648C89.7789 36.009 95.3826 37.6696 101.142 38.02C106.902 38.3704 112.666 37.4014 117.994 35.1868C118.626 34.9341 119.258 35.6923 118.626 36.1978Z" fill="#FF9900"/>
<path fill-rule="evenodd" clip-rule="evenodd" d="M120.269 34.1759C119.764 33.5441 116.731 33.7968 115.467 34.0495C114.961 34.0495 114.961 33.6704 115.341 33.4177C117.742 31.7748 121.659 32.2803 122.038 32.7858C122.544 33.4177 121.912 37.3353 119.764 39.2309C119.385 39.4836 119.005 39.3572 119.132 38.9781C119.764 37.7144 120.775 34.8078 120.269 34.1759Z" fill="#FF9900"/>
</g>
<path d="M181.656 23.3812L184.791 20.0987L185 18.7165C179.288 13.2775 170.207 13.8942 165.057 20.0034C163.627 21.7002 162.566 23.8156 162 26L163.123 25.8343L169.392 24.7518L169.876 24.2335C172.665 21.0263 177.38 20.5949 180.6 23.3236L181.656 23.3812Z" fill="#EA4335"/>
<path d="M189.492 25.7444C188.767 23.137 187.278 20.793 185.207 19L180.779 23.3233C182.649 24.815 183.714 27.0622 183.669 29.4192V30.1867C185.845 30.1867 187.61 31.9094 187.61 34.0344C187.61 36.1595 185.845 37.839 183.669 37.839H175.775L175 38.6604V43.2756L175.775 43.9997H183.669C189.33 44.0427 193.956 39.6401 194 34.1127C194.026 30.7624 192.334 27.6215 189.492 25.7444Z" fill="#4285F4"/>
<path d="M168.157 43.9999H176V37.372H168.157C167.599 37.3719 167.057 37.2451 166.549 37L165.437 37.3604L162.275 40.6743L162 41.8023C163.773 43.2154 165.936 44.01 168.157 43.9999Z" fill="#34A853"/>
<path d="M167.99 24.0001C162.44 24.0331 157.967 28.5554 158 34.1007C158.019 37.1973 159.466 40.1123 161.923 42L166.406 37.5217C164.461 36.6439 163.597 34.3573 164.475 32.4145C165.354 30.4716 167.643 29.6082 169.587 30.4859C170.444 30.8727 171.13 31.5584 171.517 32.4145L176 27.9362C174.093 25.4452 171.129 23.9888 167.99 24.0001Z" fill="#FBBC05"/>
<path d="M243.907 16H252.7L243.573 43.0477C243.478 43.3251 243.299 43.5659 243.06 43.7361C242.822 43.9063 242.536 43.9974 242.242 43.9965H235.401C235.179 43.9971 234.959 43.9445 234.761 43.8432C234.563 43.742 234.392 43.5949 234.263 43.4143C234.133 43.2337 234.048 43.0247 234.015 42.8047C233.982 42.5847 234.003 42.3601 234.074 42.1495L242.577 16.959C242.67 16.6803 242.849 16.438 243.088 16.2666C243.327 16.0951 243.613 16.003 243.907 16.0034V16Z" fill="url(#paint22_linear_678_32)"/>
<path d="M256.682 34.1399H242.739C242.609 34.1398 242.483 34.1789 242.376 34.2518C242.268 34.3248 242.186 34.4284 242.138 34.5491C242.091 34.6697 242.081 34.8019 242.11 34.9283C242.139 35.0546 242.205 35.1694 242.3 35.2576L251.258 43.6184C251.519 43.8632 251.863 43.9996 252.221 44H260.116L256.682 34.1399Z" fill="#0078D4"/>
<path d="M243.907 16C243.61 15.9985 243.321 16.0921 243.081 16.2671C242.841 16.4421 242.663 16.6893 242.573 16.9725L234.084 42.1292C234.008 42.3406 233.984 42.5673 234.015 42.7899C234.045 43.0125 234.128 43.2245 234.258 43.4081C234.387 43.5916 234.559 43.7413 234.759 43.8443C234.958 43.9473 235.18 44.0007 235.405 43.9999H242.425C242.686 43.9528 242.929 43.8373 243.131 43.6653C243.333 43.4933 243.485 43.2708 243.573 43.0207L245.268 38.0299L251.316 43.669C251.57 43.8786 251.888 43.9943 252.217 43.9966H260.082L256.631 34.1399H246.575L252.731 16.0034L243.907 16Z" fill="url(#paint23_linear_678_32)"/>
<path d="M255.138 16.9522C255.045 16.6744 254.866 16.433 254.628 16.2622C254.39 16.0913 254.104 15.9996 253.811 16H244.012C244.305 16.0001 244.59 16.092 244.828 16.2628C245.066 16.4336 245.245 16.6747 245.339 16.9522L253.841 42.1495C253.913 42.3603 253.933 42.585 253.9 42.8052C253.867 43.0253 253.782 43.2344 253.653 43.4153C253.523 43.5961 253.352 43.7435 253.154 43.8451C252.956 43.9468 252.737 43.9999 252.514 43.9999H262.314C262.536 43.9999 262.756 43.9468 262.953 43.8451C263.151 43.7435 263.322 43.5961 263.452 43.4153C263.582 43.2344 263.667 43.0253 263.699 42.8052C263.732 42.585 263.712 42.3603 263.641 42.1495L255.138 16.9522Z" fill="url(#paint24_linear_678_32)"/>
<defs>
<filter id="filter0_i_678_32" x="73" y="0" width="60" height="60" filterUnits="userSpaceOnUse" color-interpolation-filters="sRGB">
<feFlood flood-opacity="0" result="BackgroundImageFix"/>
<feBlend mode="normal" in="SourceGraphic" in2="BackgroundImageFix" result="shape"/>
<feColorMatrix in="SourceAlpha" type="matrix" values="0 0 0 0 0 0 0 0 0 0 0 0 0 0 0 0 0 0 127 0" result="hardAlpha"/>
<feMorphology radius="2" operator="erode" in="SourceAlpha" result="effect1_innerShadow_678_32"/>
<feOffset/>
<feGaussianBlur stdDeviation="6"/>
<feComposite in2="hardAlpha" operator="arithmetic" k2="-1" k3="1"/>
<feColorMatrix type="matrix" values="0 0 0 0 0 0 0 0 0 0 0 0 0 0 0 0 0 0 0.46 0"/>
<feBlend mode="normal" in2="shape" result="effect1_innerShadow_678_32"/>
</filter>
<filter id="filter1_i_678_32" x="146" y="0" width="60" height="60" filterUnits="userSpaceOnUse" color-interpolation-filters="sRGB">
<feFlood flood-opacity="0" result="BackgroundImageFix"/>
<feBlend mode="normal" in="SourceGraphic" in2="BackgroundImageFix" result="shape"/>
<feColorMatrix in="SourceAlpha" type="matrix" values="0 0 0 0 0 0 0 0 0 0 0 0 0 0 0 0 0 0 127 0" result="hardAlpha"/>
<feMorphology radius="2" operator="erode" in="SourceAlpha" result="effect1_innerShadow_678_32"/>
<feOffset/>
<feGaussianBlur stdDeviation="6"/>
<feComposite in2="hardAlpha" operator="arithmetic" k2="-1" k3="1"/>
<feColorMatrix type="matrix" values="0 0 0 0 0 0 0 0 0 0 0 0 0 0 0 0 0 0 0.46 0"/>
<feBlend mode="normal" in2="shape" result="effect1_innerShadow_678_32"/>
</filter>
<filter id="filter2_i_678_32" x="219" y="0" width="60" height="60" filterUnits="userSpaceOnUse" color-interpolation-filters="sRGB">
<feFlood flood-opacity="0" result="BackgroundImageFix"/>
<feBlend mode="normal" in="SourceGraphic" in2="BackgroundImageFix" result="shape"/>
<feColorMatrix in="SourceAlpha" type="matrix" values="0 0 0 0 0 0 0 0 0 0 0 0 0 0 0 0 0 0 127 0" result="hardAlpha"/>
<feMorphology radius="2" operator="erode" in="SourceAlpha" result="effect1_innerShadow_678_32"/>
<feOffset/>
<feGaussianBlur stdDeviation="5"/>
<feComposite in2="hardAlpha" operator="arithmetic" k2="-1" k3="1"/>
<feColorMatrix type="matrix" values="0 0 0 0 0.0265745 0 0 0 0 0.0265745 0 0 0 0 0.0265745 0 0 0 0.46 0"/>
<feBlend mode="normal" in2="shape" result="effect1_innerShadow_678_32"/>
</filter>
<filter id="filter3_i_678_32" x="292" y="0" width="60" height="60" filterUnits="userSpaceOnUse" color-interpolation-filters="sRGB">
<feFlood flood-opacity="0" result="BackgroundImageFix"/>
<feBlend mode="normal" in="SourceGraphic" in2="BackgroundImageFix" result="shape"/>
<feColorMatrix in="SourceAlpha" type="matrix" values="0 0 0 0 0 0 0 0 0 0 0 0 0 0 0 0 0 0 127 0" result="hardAlpha"/>
<feMorphology radius="2" operator="erode" in="SourceAlpha" result="effect1_innerShadow_678_32"/>
<feOffset/>
<feGaussianBlur stdDeviation="4.5"/>
<feComposite in2="hardAlpha" operator="arithmetic" k2="-1" k3="1"/>
<feColorMatrix type="matrix" values="0 0 0 0 0.0265745 0 0 0 0 0.0265745 0 0 0 0 0.0265745 0 0 0 0.46 0"/>
<feBlend mode="normal" in2="shape" result="effect1_innerShadow_678_32"/>
</filter>
<filter id="filter4_i_678_32" x="292" y="72" width="60" height="60" filterUnits="userSpaceOnUse" color-interpolation-filters="sRGB">
<feFlood flood-opacity="0" result="BackgroundImageFix"/>
<feBlend mode="normal" in="SourceGraphic" in2="BackgroundImageFix" result="shape"/>
<feColorMatrix in="SourceAlpha" type="matrix" values="0 0 0 0 0 0 0 0 0 0 0 0 0 0 0 0 0 0 127 0" result="hardAlpha"/>
<feMorphology radius="2" operator="erode" in="SourceAlpha" result="effect1_innerShadow_678_32"/>
<feOffset/>
<feGaussianBlur stdDeviation="5"/>
<feComposite in2="hardAlpha" operator="arithmetic" k2="-1" k3="1"/>
<feColorMatrix type="matrix" values="0 0 0 0 0.0265745 0 0 0 0 0.0265745 0 0 0 0 0.0265745 0 0 0 0.46 0"/>
<feBlend mode="normal" in2="shape" result="effect1_innerShadow_678_32"/>
</filter>
<filter id="filter5_i_678_32" x="292" y="72" width="60" height="60" filterUnits="userSpaceOnUse" color-interpolation-filters="sRGB">
<feFlood flood-opacity="0" result="BackgroundImageFix"/>
<feBlend mode="normal" in="SourceGraphic" in2="BackgroundImageFix" result="shape"/>
<feColorMatrix in="SourceAlpha" type="matrix" values="0 0 0 0 0 0 0 0 0 0 0 0 0 0 0 0 0 0 127 0" result="hardAlpha"/>
<feMorphology radius="2" operator="erode" in="SourceAlpha" result="effect1_innerShadow_678_32"/>
<feOffset/>
<feGaussianBlur stdDeviation="5"/>
<feComposite in2="hardAlpha" operator="arithmetic" k2="-1" k3="1"/>
<feColorMatrix type="matrix" values="0 0 0 0 0.0265745 0 0 0 0 0.0265745 0 0 0 0 0.0265745 0 0 0 0.46 0"/>
<feBlend mode="normal" in2="shape" result="effect1_innerShadow_678_32"/>
</filter>
<filter id="filter6_i_678_32" x="219" y="72" width="60" height="60" filterUnits="userSpaceOnUse" color-interpolation-filters="sRGB">
<feFlood flood-opacity="0" result="BackgroundImageFix"/>
<feBlend mode="normal" in="SourceGraphic" in2="BackgroundImageFix" result="shape"/>
<feColorMatrix in="SourceAlpha" type="matrix" values="0 0 0 0 0 0 0 0 0 0 0 0 0 0 0 0 0 0 127 0" result="hardAlpha"/>
<feMorphology radius="2" operator="erode" in="SourceAlpha" result="effect1_innerShadow_678_32"/>
<feOffset/>
<feGaussianBlur stdDeviation="5"/>
<feComposite in2="hardAlpha" operator="arithmetic" k2="-1" k3="1"/>
<feColorMatrix type="matrix" values="0 0 0 0 0.0265745 0 0 0 0 0.0265745 0 0 0 0 0.0265745 0 0 0 0.46 0"/>
<feBlend mode="normal" in2="shape" result="effect1_innerShadow_678_32"/>
</filter>
<filter id="filter7_i_678_32" x="146" y="72" width="60" height="60" filterUnits="userSpaceOnUse" color-interpolation-filters="sRGB">
<feFlood flood-opacity="0" result="BackgroundImageFix"/>
<feBlend mode="normal" in="SourceGraphic" in2="BackgroundImageFix" result="shape"/>
<feColorMatrix in="SourceAlpha" type="matrix" values="0 0 0 0 0 0 0 0 0 0 0 0 0 0 0 0 0 0 127 0" result="hardAlpha"/>
<feMorphology radius="2" operator="erode" in="SourceAlpha" result="effect1_innerShadow_678_32"/>
<feOffset/>
<feGaussianBlur stdDeviation="5"/>
<feComposite in2="hardAlpha" operator="arithmetic" k2="-1" k3="1"/>
<feColorMatrix type="matrix" values="0 0 0 0 0.0265745 0 0 0 0 0.0265745 0 0 0 0 0.0265745 0 0 0 0.46 0"/>
<feBlend mode="normal" in2="shape" result="effect1_innerShadow_678_32"/>
</filter>
<filter id="filter8_i_678_32" x="73" y="72" width="60" height="60" filterUnits="userSpaceOnUse" color-interpolation-filters="sRGB">
<feFlood flood-opacity="0" result="BackgroundImageFix"/>
<feBlend mode="normal" in="SourceGraphic" in2="BackgroundImageFix" result="shape"/>
<feColorMatrix in="SourceAlpha" type="matrix" values="0 0 0 0 0 0 0 0 0 0 0 0 0 0 0 0 0 0 127 0" result="hardAlpha"/>
<feMorphology radius="2" operator="erode" in="SourceAlpha" result="effect1_innerShadow_678_32"/>
<feOffset/>
<feGaussianBlur stdDeviation="5"/>
<feComposite in2="hardAlpha" operator="arithmetic" k2="-1" k3="1"/>
<feColorMatrix type="matrix" values="0 0 0 0 0.0265745 0 0 0 0 0.0265745 0 0 0 0 0.0265745 0 0 0 0.46 0"/>
<feBlend mode="normal" in2="shape" result="effect1_innerShadow_678_32"/>
</filter>
<filter id="filter9_i_678_32" x="0" y="72" width="60" height="60" filterUnits="userSpaceOnUse" color-interpolation-filters="sRGB">
<feFlood flood-opacity="0" result="BackgroundImageFix"/>
<feBlend mode="normal" in="SourceGraphic" in2="BackgroundImageFix" result="shape"/>
<feColorMatrix in="SourceAlpha" type="matrix" values="0 0 0 0 0 0 0 0 0 0 0 0 0 0 0 0 0 0 127 0" result="hardAlpha"/>
<feMorphology radius="2" operator="erode" in="SourceAlpha" result="effect1_innerShadow_678_32"/>
<feOffset/>
<feGaussianBlur stdDeviation="5"/>
<feComposite in2="hardAlpha" operator="arithmetic" k2="-1" k3="1"/>
<feColorMatrix type="matrix" values="0 0 0 0 0.0265745 0 0 0 0 0.0265745 0 0 0 0 0.0265745 0 0 0 0.46 0"/>
<feBlend mode="normal" in2="shape" result="effect1_innerShadow_678_32"/>
</filter>
<filter id="filter10_i_678_32" x="0" y="0" width="60" height="60" filterUnits="userSpaceOnUse" color-interpolation-filters="sRGB">
<feFlood flood-opacity="0" result="BackgroundImageFix"/>
<feBlend mode="normal" in="SourceGraphic" in2="BackgroundImageFix" result="shape"/>
<feColorMatrix in="SourceAlpha" type="matrix" values="0 0 0 0 0 0 0 0 0 0 0 0 0 0 0 0 0 0 127 0" result="hardAlpha"/>
<feMorphology radius="2" operator="erode" in="SourceAlpha" result="effect1_innerShadow_678_32"/>
<feOffset/>
<feGaussianBlur stdDeviation="5"/>
<feComposite in2="hardAlpha" operator="arithmetic" k2="-1" k3="1"/>
<feColorMatrix type="matrix" values="0 0 0 0 0.0265745 0 0 0 0 0.0265745 0 0 0 0 0.0265745 0 0 0 0.46 0"/>
<feBlend mode="normal" in2="shape" result="effect1_innerShadow_678_32"/>
</filter>
<linearGradient id="paint0_linear_678_32" x1="99.5" y1="35.5" x2="78" y2="58.5" gradientUnits="userSpaceOnUse">
<stop offset="0.0876422" stop-color="#1F1F1F"/>
<stop offset="1" stop-color="#2B2A2A"/>
</linearGradient>
<linearGradient id="paint1_linear_678_32" x1="112" y1="32.5" x2="131.5" y2="0.999998" gradientUnits="userSpaceOnUse">
<stop stop-color="#1F1F1F"/>
<stop offset="1" stop-color="#363636"/>
</linearGradient>
<linearGradient id="paint2_linear_678_32" x1="172.5" y1="35.5" x2="151" y2="58.5" gradientUnits="userSpaceOnUse">
<stop offset="0.0876422" stop-color="#1F1F1F"/>
<stop offset="1" stop-color="#2B2A2A"/>
</linearGradient>
<linearGradient id="paint3_linear_678_32" x1="185" y1="32.5" x2="204.5" y2="0.999998" gradientUnits="userSpaceOnUse">
<stop stop-color="#1F1F1F"/>
<stop offset="1" stop-color="#363636"/>
</linearGradient>
<linearGradient id="paint4_linear_678_32" x1="245.5" y1="35.5" x2="224" y2="58.5" gradientUnits="userSpaceOnUse">
<stop offset="0.0876422" stop-color="#1F1F1F"/>
<stop offset="1" stop-color="#2B2A2A"/>
</linearGradient>
<linearGradient id="paint5_linear_678_32" x1="258" y1="32.5" x2="277.5" y2="0.999998" gradientUnits="userSpaceOnUse">
<stop stop-color="#1F1F1F"/>
<stop offset="1" stop-color="#363636"/>
</linearGradient>
<linearGradient id="paint6_linear_678_32" x1="318.5" y1="35.5" x2="297" y2="58.5" gradientUnits="userSpaceOnUse">
<stop offset="0.0876422" stop-color="#1F1F1F"/>
<stop offset="1" stop-color="#2B2A2A"/>
</linearGradient>
<linearGradient id="paint7_linear_678_32" x1="331" y1="32.5" x2="350.5" y2="0.999998" gradientUnits="userSpaceOnUse">
<stop stop-color="#1F1F1F"/>
<stop offset="1" stop-color="#363636"/>
</linearGradient>
<linearGradient id="paint8_linear_678_32" x1="318.5" y1="107.5" x2="297" y2="130.5" gradientUnits="userSpaceOnUse">
<stop offset="0.0876422" stop-color="#1F1F1F"/>
<stop offset="1" stop-color="#2B2A2A"/>
</linearGradient>
<linearGradient id="paint9_linear_678_32" x1="331" y1="104.5" x2="350.5" y2="73" gradientUnits="userSpaceOnUse">
<stop stop-color="#1F1F1F"/>
<stop offset="1" stop-color="#363636"/>
</linearGradient>
<linearGradient id="paint10_linear_678_32" x1="318.5" y1="107.5" x2="297" y2="130.5" gradientUnits="userSpaceOnUse">
<stop offset="0.0876422" stop-color="#1F1F1F"/>
<stop offset="1" stop-color="#2B2A2A"/>
</linearGradient>
<linearGradient id="paint11_linear_678_32" x1="331" y1="104.5" x2="350.5" y2="73" gradientUnits="userSpaceOnUse">
<stop stop-color="#1F1F1F"/>
<stop offset="1" stop-color="#363636"/>
</linearGradient>
<linearGradient id="paint12_linear_678_32" x1="245.5" y1="107.5" x2="224" y2="130.5" gradientUnits="userSpaceOnUse">
<stop offset="0.0876422" stop-color="#1F1F1F"/>
<stop offset="1" stop-color="#2B2A2A"/>
</linearGradient>
<linearGradient id="paint13_linear_678_32" x1="258" y1="104.5" x2="277.5" y2="73" gradientUnits="userSpaceOnUse">
<stop stop-color="#1F1F1F"/>
<stop offset="1" stop-color="#363636"/>
</linearGradient>
<linearGradient id="paint14_linear_678_32" x1="172.5" y1="107.5" x2="151" y2="130.5" gradientUnits="userSpaceOnUse">
<stop offset="0.0876422" stop-color="#1F1F1F"/>
<stop offset="1" stop-color="#2B2A2A"/>
</linearGradient>
<linearGradient id="paint15_linear_678_32" x1="185" y1="104.5" x2="204.5" y2="73" gradientUnits="userSpaceOnUse">
<stop stop-color="#1F1F1F"/>
<stop offset="1" stop-color="#363636"/>
</linearGradient>
<linearGradient id="paint16_linear_678_32" x1="99.5" y1="107.5" x2="78" y2="130.5" gradientUnits="userSpaceOnUse">
<stop offset="0.0876422" stop-color="#1F1F1F"/>
<stop offset="1" stop-color="#2B2A2A"/>
</linearGradient>
<linearGradient id="paint17_linear_678_32" x1="112" y1="104.5" x2="131.5" y2="73" gradientUnits="userSpaceOnUse">
<stop stop-color="#1F1F1F"/>
<stop offset="1" stop-color="#363636"/>
</linearGradient>
<linearGradient id="paint18_linear_678_32" x1="26.5" y1="107.5" x2="5" y2="130.5" gradientUnits="userSpaceOnUse">
<stop offset="0.0876422" stop-color="#1F1F1F"/>
<stop offset="1" stop-color="#2B2A2A"/>
</linearGradient>
<linearGradient id="paint19_linear_678_32" x1="39" y1="104.5" x2="58.5" y2="73" gradientUnits="userSpaceOnUse">
<stop stop-color="#1F1F1F"/>
<stop offset="1" stop-color="#363636"/>
</linearGradient>
<linearGradient id="paint20_linear_678_32" x1="26.5" y1="35.5" x2="5" y2="58.5" gradientUnits="userSpaceOnUse">
<stop offset="0.0876422" stop-color="#1F1F1F"/>
<stop offset="1" stop-color="#2B2A2A"/>
</linearGradient>
<linearGradient id="paint21_linear_678_32" x1="39" y1="32.5" x2="58.5" y2="0.999998" gradientUnits="userSpaceOnUse">
<stop stop-color="#1F1F1F"/>
<stop offset="1" stop-color="#363636"/>
</linearGradient>
<linearGradient id="paint22_linear_678_32" x1="247.112" y1="18.0767" x2="237.981" y2="45.0501" gradientUnits="userSpaceOnUse">
<stop stop-color="#114A8B"/>
<stop offset="1" stop-color="#0669BC"/>
</linearGradient>
<linearGradient id="paint23_linear_678_32" x1="249.962" y1="30.6483" x2="247.851" y2="31.3608" gradientUnits="userSpaceOnUse">
<stop stop-opacity="0.3"/>
<stop offset="0.07" stop-opacity="0.2"/>
<stop offset="0.32" stop-opacity="0.1"/>
<stop offset="0.62" stop-opacity="0.05"/>
<stop offset="1" stop-opacity="0"/>
</linearGradient>
<linearGradient id="paint24_linear_678_32" x1="248.803" y1="17.2899" x2="258.825" y2="43.9932" gradientUnits="userSpaceOnUse">
<stop stop-color="#3CCBF4"/>
<stop offset="1" stop-color="#2892DF"/>
</linearGradient>
<clipPath id="clip0_678_32">
<rect width="38.4176" height="23" fill="white" transform="translate(84 18)"/>
</clipPath>
</defs>
</svg>
